<svg xmlns="http://www.w3.org/2000/svg" xmlns:xlink="http://www.w3.org/1999/xlink" viewBox="0 0 640 512"><defs><linearGradient id="未命名的渐变_27" x1="320" y1="384" x2="576" y2="128" gradientUnits="userSpaceOnUse"><stop offset="0" stop-color="#003e87"/><stop offset="0.11" stop-color="#004e9a"/><stop offset="0.25" stop-color="#005daa"/><stop offset="0.4" stop-color="#0065b4"/><stop offset="0.6" stop-color="#0068b7"/><stop offset="0.66" stop-color="#0068b7"/><stop offset="1" stop-color="#0068b7"/></linearGradient><linearGradient id="未命名的渐变_25" x1="288" y1="416" x2="-13.25" y2="114.75" gradientUnits="userSpaceOnUse"><stop offset="0" stop-color="#003e87"/><stop offset="0.08" stop-color="#004791"/><stop offset="0.27" stop-color="#0059a6"/><stop offset="0.46" stop-color="#0064b3"/><stop offset="0.64" stop-color="#0068b7"/><stop offset="0.69" stop-color="#0068b7"/><stop offset="1" stop-color="#0068b7"/></linearGradient></defs><title>logo</title><g id="图层_3" data-name="图层 3"><circle cx="320" cy="448" r="64" style="fill:#003e87"/><rect x="384" y="64" width="128" height="384" style="fill:url(#未命名的渐变_27)"/><path d="M64,64H178.75a32,32,0,0,1,22.62,9.37l49.94,49.94A16,16,0,0,1,256,134.63V448H70.63a16,16,0,0,1-11.32-4.69L9.37,393.37A32,32,0,0,1,0,370.75V128A64,64,0,0,1,64,64Z" style="fill:url(#未命名的渐变_25)"/></g></svg>