<svg xmlns="http://www.w3.org/2000/svg" viewBox="0 0 324 108"><title>banner</title><g id="Background"><polygon points="42 36 42 0 150 108 42 36" style="fill:#e60012"/><polygon points="42 0 78 0 150 108 42 0" style="fill:#f92f3d"/><polygon points="42 108 42 36 150 90 150 108 42 108" style="fill:#b7000d"/><polygon points="282 0 78 0 132 108 282 108 282 0" style="fill:#fa5a65"/></g><g id="Foreground"><path d="M101,48a5,5,0,1,0-5,5,5.23,5.23,0,0,0,1.14-.14l3.72-3.72A5.23,5.23,0,0,0,101,48Z" style="fill:#0190ff"/><path d="M122.87,27.13,150,0H114L102.91,16.64A37.92,37.92,0,0,1,122.87,27.13Z" style="fill:#0190ff"/><path d="M42,108,69.13,80.87a37.94,37.94,0,0,1-5-6.12Z" style="fill:#0190ff"/><path d="M87.45,62.55C84.54,57.84,82,52.47,82,48L65.38,72.93a36.63,36.63,0,0,0,5.16,6.53Z" style="fill:#0190ff"/><path d="M101.7,18.45,90.62,35.07a14,14,0,0,1,17.81,6.5l13-13A36,36,0,0,0,101.7,18.45Z" style="fill:#0190ff"/><path d="M94.9,72.73a90.72,90.72,0,0,1-7.45-10.18L70.54,79.46a36.63,36.63,0,0,0,6.53,5.16Z" style="fill:#0068b7"/><path d="M204,0H150L122.87,27.13a37.92,37.92,0,0,1,10.49,20Z" style="fill:#0068b7"/><path d="M100.86,49.14l-3.72,3.72A5,5,0,0,0,100.86,49.14Z" style="fill:#0068b7"/><path d="M69.13,80.87,42,108,75.25,85.83A37.94,37.94,0,0,1,69.13,80.87Z" style="fill:#0068b7"/><path d="M108.43,41.57A13.92,13.92,0,0,1,110,48c0,7-6.21,16.2-10.35,21.57l31.9-21.27a36,36,0,0,0-10.09-19.76Z" style="fill:#0068b7"/><path d="M204,0,133.36,47.09A38,38,0,0,1,96,92a37.8,37.8,0,0,1-20.75-6.17L42,108H324V0Z" style="fill:#00508e"/><path d="M99.65,69.57C97.57,72.26,96,74,96,74s-.42-.46-1.1-1.27L77.07,84.62A36,36,0,0,0,132,54a36.94,36.94,0,0,0-.45-5.7L123,54Z" style="fill:#00508e"/><path d="M60,54A35.89,35.89,0,0,0,73.11,81.78L85,58.1c-1.72-3.45-3-7-3-10.1A14,14,0,0,1,96,34c.33,0,.65,0,1,0l7.51-15A36,36,0,0,0,60,54Z" style="fill:#15a6ff"/><path d="M58,54a38,38,0,0,1,47.41-36.82L114,0H0V108H60L72.19,83.61A37.92,37.92,0,0,1,58,54Z" style="fill:#15a6ff"/></g><g id="图层_5" data-name="图层 5"><path d="M194.21,62.83a31.15,31.15,0,0,1-7.78-1A11.64,11.64,0,0,1,181,58.18a2.62,2.62,0,0,0-2-1.25c-1.44,0-3.65,2.25-6.72,6.82L171,62.69c2.88-4.42,5.33-6.82,7.3-7.3V39.12h-7.54V37.49h9.13V55.44A5.06,5.06,0,0,1,182,56.93a11.55,11.55,0,0,0,4.42,3.31,24.69,24.69,0,0,0,7,1c2.36,0,5.53.1,9.51.1h6c2,0,3.55-.1,4.65-.15l-.43,1.78h-10C200.35,62.93,197.38,62.88,194.21,62.83ZM181.63,29l-1.1,1.15a64.52,64.52,0,0,0-8.79-7.44l1.16-1.1A64,64,0,0,1,181.63,29Zm11.67-7.49a112.26,112.26,0,0,1-7.06,17c2.83,6.15,5.19,11.86,7.06,17.24l-1.44.67c-2-5.81-4.42-11.81-7.25-18A129.9,129.9,0,0,0,191.81,21Zm9.6.05a124.31,124.31,0,0,1-7.35,16.89q4.39,9.07,7.35,17l-1.54.67a166.62,166.62,0,0,0-7.49-17.81A111.25,111.25,0,0,0,201.31,21Zm9.41.09a110.21,110.21,0,0,1-7.39,16.9c3.12,5.95,5.71,11.57,7.82,16.8l-1.49.67a175.43,175.43,0,0,0-8.06-17.57,121.34,121.34,0,0,0,7.58-17.37Z" style="fill:#fff"/><path d="M235.15,57.07a87.6,87.6,0,0,1-16.22,4.61l-.24-1.58a84.85,84.85,0,0,0,16.46-4.61ZM229.3,20.73q-4.19,10.67-8.36,16.37c2.88-.24,5.77-.62,8.74-1.1,1-1.87,2.07-3.84,3.12-5.91l1.49.58q-7.35,13.83-11.91,18.67a79.85,79.85,0,0,0,12.2-3V47.9a79.66,79.66,0,0,1-14.07,3.17L220,49.54a3.17,3.17,0,0,0,.77-.48c2.3-2.4,4.95-6.25,8-11.53-3.32.48-6.48.92-9.46,1.25l-.43-1.53a3.21,3.21,0,0,0,.72-.68,68.44,68.44,0,0,0,8.11-16.46ZM258.58,31l-12.91,1.87c0,2.88.24,5.57.52,8.11l13.45-2.16.24,1.64-13.49,2.16a36.69,36.69,0,0,0,.62,4.17,38.8,38.8,0,0,0,2.11,7.35,45,45,0,0,0,8.31-9.6l1.39.86a52.52,52.52,0,0,1-9.07,10.22,19.83,19.83,0,0,0,1.34,2.5c1.73,2.5,3.31,3.74,4.75,3.74s2.84-3,3.89-9.07l1.44.87c-1.2,6.62-2.93,9.93-5.13,9.93s-4.18-1.53-6.1-4.41a18.93,18.93,0,0,1-1.49-2.5A39.21,39.21,0,0,1,236.21,63l-1-1.34a41.88,41.88,0,0,0,12.58-6.53,37.35,37.35,0,0,1-2.35-7.73c-.29-1.53-.53-3-.72-4.56l-9.36,1.49-.24-1.63,9.4-1.49c-.28-2.59-.48-5.28-.52-8.16l-7.78,1.1L236,32.59l8-1.15V20.3h1.63v9.31c0,.53,0,1.06.05,1.59l12.72-1.87Zm-1.49-4.32-1.29.91a50.21,50.21,0,0,0-6.25-6.48l1.3-.82A49.49,49.49,0,0,1,257.09,26.64Z" style="fill:#fff"/><path d="M187.8,73c2.73,0,4.12,1.19,4.12,3.58s-1.39,3.62-4.14,3.62h-4.47v5.65h-.7V73Zm-4.49,6.55h4.45a3.91,3.91,0,0,0,2.63-.77,2.84,2.84,0,0,0,.83-2.2,2.77,2.77,0,0,0-.83-2.18,4,4,0,0,0-2.63-.75h-4.45Z" style="fill:#fff"/><path d="M200.38,77.34a3.66,3.66,0,0,1,.79,2.47v6h-.67v-2A5.62,5.62,0,0,1,199,85.32a4.88,4.88,0,0,1-2.6.76,3.36,3.36,0,0,1-2.14-.67,2.18,2.18,0,0,1-.88-1.84,2.51,2.51,0,0,1,1.35-2.36,6.38,6.38,0,0,1,3.29-.68l2.51,0v-.63c0-2-1-3-3-3a3.65,3.65,0,0,0-2.06.53,2.42,2.42,0,0,0-1.11,1.65l-.67-.07A3,3,0,0,1,195,77a4.3,4.3,0,0,1,2.52-.69A3.6,3.6,0,0,1,200.38,77.34ZM198,81.12c-2.65,0-4,.85-4,2.47a1.62,1.62,0,0,0,.67,1.37,3,3,0,0,0,1.78.5,4.16,4.16,0,0,0,2.77-1.08,2.85,2.85,0,0,0,1.23-2.1V81.11Z" style="fill:#fff"/><path d="M205.45,76.52H208v.63h-2.58v6.71a1.54,1.54,0,0,0,.26,1,1.11,1.11,0,0,0,.93.3h1.17v.63h-1.22a1.78,1.78,0,0,1-1.46-.52,2.3,2.3,0,0,1-.36-1.44V77.15h-2.11v-.63h2.11V73.81l.68-.3Z" style="fill:#fff"/><path d="M214.85,76.44v.74a5.56,5.56,0,0,0-1.48-.21,2.56,2.56,0,0,0-2.25,1.31,4.83,4.83,0,0,0-.72,2.63v4.91h-.7v-9.3h.7v1.94A3.55,3.55,0,0,1,211.48,77a2.93,2.93,0,0,1,1.93-.71A4.73,4.73,0,0,1,214.85,76.44Z" style="fill:#fff"/><path d="M223.31,77.79a5.29,5.29,0,0,1,1.1,3.39,5.36,5.36,0,0,1-1.1,3.38,4,4,0,0,1-3.24,1.52,3.89,3.89,0,0,1-3.24-1.52,5.24,5.24,0,0,1-1.1-3.38,5.17,5.17,0,0,1,1.1-3.39,3.88,3.88,0,0,1,3.24-1.53A3.93,3.93,0,0,1,223.31,77.79Zm-6,.42a4.72,4.72,0,0,0-.92,3,4.66,4.66,0,0,0,.92,2.95,3.26,3.26,0,0,0,2.72,1.32,3.31,3.31,0,0,0,2.72-1.32,5.22,5.22,0,0,0,0-5.92,3.28,3.28,0,0,0-2.72-1.32A3.23,3.23,0,0,0,217.35,78.21Z" style="fill:#fff"/><path d="M227.05,76.52v5.7a3.63,3.63,0,0,0,.67,2.38,2.68,2.68,0,0,0,2.18.85,2.81,2.81,0,0,0,2.12-.92,3.54,3.54,0,0,0,.92-2.38V76.52h.68v9.3h-.68V84.1a3.41,3.41,0,0,1-3.17,2q-3.42,0-3.42-3.84V76.52Z" style="fill:#fff"/><path d="M237.91,76.52h2.57v.63h-2.57v6.71a1.54,1.54,0,0,0,.25,1,1.12,1.12,0,0,0,.93.3h1.17v.63H239a1.78,1.78,0,0,1-1.46-.52,2.3,2.3,0,0,1-.36-1.44V77.15h-2.1v-.63h2.1V73.81l.69-.3Z" style="fill:#fff"/><path d="M249.09,77.74a6.74,6.74,0,0,1,1,3.65h-7.78a4.56,4.56,0,0,0,1,2.94,3.23,3.23,0,0,0,2.54,1.12,3.29,3.29,0,0,0,2.27-.78,3.79,3.79,0,0,0,1.05-1.84h.74a4.55,4.55,0,0,1-1.23,2.24,4.08,4.08,0,0,1-2.83,1,3.83,3.83,0,0,1-3.08-1.35,5.91,5.91,0,0,1-.05-7,4.16,4.16,0,0,1,6.36,0Zm-5.71.25a4.71,4.71,0,0,0-1,2.79h7.06c-.2-2.59-1.37-3.89-3.53-3.89A3.1,3.1,0,0,0,243.38,78Z" style="fill:#fff"/></g></svg>